<svg data-v-423bf9ae="" xmlns="http://www.w3.org/2000/svg" viewBox="0 0 318.80685993629766 60" class="font"><!----><!----><!----><g data-v-423bf9ae="" id="6c5fb7e4-74ce-423f-b900-40117b540bfd" fill="black" transform="matrix(6.066733864221661,0,0,6.066733864221661,0.060664726984924755,-22.750251513994073)"><path d="M8.79 13.55L7.71 11.10L2.51 11.10L1.43 13.55L-0.01 13.55L4.42 3.75L5.81 3.75L10.26 13.55L8.79 13.55ZM3.00 9.98L7.22 9.98L5.11 5.18L3.00 9.98ZM13.12 12.33L18.83 12.33L18.83 13.55L11.72 13.55L11.72 3.75L18.63 3.75L18.63 4.97L13.12 4.97L13.12 7.98L18.03 7.98L18.03 9.17L13.12 9.17L13.12 12.33ZM21.10 13.55L21.10 3.75L25.23 3.75L25.23 3.75Q26.78 3.75 27.99 4.37L27.99 4.37L27.99 4.37Q29.19 4.98 29.86 6.10L29.86 6.10L29.86 6.10Q30.52 7.21 30.52 8.65L30.52 8.65L30.52 8.65Q30.52 10.09 29.86 11.21L29.86 11.21L29.86 11.21Q29.19 12.32 27.99 12.94L27.99 12.94L27.99 12.94Q26.78 13.55 25.23 13.55L25.23 13.55L21.10 13.55ZM22.50 12.33L25.14 12.33L25.14 12.33Q26.33 12.33 27.24 11.87L27.24 11.87L27.24 11.87Q28.14 11.41 28.63 10.58L28.63 10.58L28.63 10.58Q29.12 9.74 29.12 8.65L29.12 8.65L29.12 8.65Q29.12 7.56 28.63 6.73L28.63 6.73L28.63 6.73Q28.14 5.89 27.24 5.43L27.24 5.43L27.24 5.43Q26.33 4.97 25.14 4.97L25.14 4.97L22.50 4.97L22.50 12.33ZM43.09 13.55L41.75 13.55L41.73 6.41L38.19 12.36L37.55 12.36L34.01 6.45L34.01 13.55L32.66 13.55L32.66 3.75L33.81 3.75L37.90 10.64L41.93 3.75L43.08 3.75L43.09 13.55ZM52.54 9.88L52.54 9.88Q52.54 10.04 52.51 10.29L52.51 10.29L46.49 10.29L46.49 10.29Q46.62 11.27 47.35 11.87L47.35 11.87L47.35 11.87Q48.09 12.46 49.18 12.46L49.18 12.46L49.18 12.46Q50.51 12.46 51.32 11.56L51.32 11.56L52.07 12.43L52.07 12.43Q51.56 13.02 50.81 13.33L50.81 13.33L50.81 13.33Q50.06 13.64 49.14 13.64L49.14 13.64L49.14 13.64Q47.96 13.64 47.05 13.15L47.05 13.15L47.05 13.15Q46.14 12.67 45.65 11.80L45.65 11.80L45.65 11.80Q45.15 10.93 45.15 9.84L45.15 9.84L45.15 9.84Q45.15 8.76 45.63 7.90L45.63 7.90L45.63 7.90Q46.12 7.03 46.96 6.54L46.96 6.54L46.96 6.54Q47.81 6.06 48.87 6.06L48.87 6.06L48.87 6.06Q49.94 6.06 50.77 6.54L50.77 6.54L50.77 6.54Q51.60 7.03 52.07 7.90L52.07 7.90L52.07 7.90Q52.54 8.76 52.54 9.88L52.54 9.88ZM48.87 7.20L48.87 7.20Q47.91 7.20 47.26 7.78L47.26 7.78L47.26 7.78Q46.61 8.37 46.49 9.32L46.49 9.32L51.25 9.32L51.25 9.32Q51.14 8.39 50.49 7.79L50.49 7.79L50.49 7.79Q49.84 7.20 48.87 7.20L48.87 7.20Z"></path></g><!----><!----></svg>